Coordinates
version=1
nRows=29
nColumns=24
inDegrees=yes

Units are S.I. units (second, meters, Newtons, ...)
Angles are in degrees.

endheader
time	pelvis_tilt	pelvis_list	pelvis_rotation	pelvis_tx	pelvis_ty	pelvis_tz	hip_flexion_r	hip_adduction_r	hip_rotation_r	knee_angle_r	ankle_angle_r	subtalar_angle_r	mtp_angle_r	hip_flexion_l	hip_adduction_l	hip_rotation_l	knee_angle_l	ankle_angle_l	subtalar_angle_l	mtp_angle_l	lumbar_extension	lumbar_bending	lumbar_rotation
      0.54200000	     -0.07937748	      0.12273298	      3.17912010	     -0.83227932	      0.99393048	      0.31531893	     21.98146353	      1.84545467	     -4.43938335	     -0.69409470	     -0.07881869	    -14.72412355	     -0.02941279	    -16.84428556	      2.90520371	      2.51486258	     -3.84353765	      6.41847226	     -5.66249997	      0.81361633	     -4.62457318	      2.16125504	     -1.63501187
      0.54616667	     -0.17826820	      0.07386774	      3.16497535	     -0.82630809	      0.99333431	      0.31565912	     22.09896770	      1.96766030	     -4.39229577	     -0.98253743	     -0.27515582	    -14.85714985	     -0.00748489	    -16.84301995	      2.81671036	      2.38920236	     -4.33132050	      6.46616629	     -5.38240889	      1.07509626	     -4.42886535	      2.23340688	     -1.69922876
      0.55033333	     -0.17152631	      0.00645864	      3.12213402	     -0.82028174	      0.99290931	      0.31605160	     22.08335237	      2.13005342	     -4.24980870	     -1.28502889	     -0.49799332	    -15.08048033	      0.04168136	    -16.95858774	      2.70838781	      2.19906967	     -4.80715022	      6.46339167	     -5.07849403	      1.42889407	     -4.38279195	      2.31176685	     -1.73555590
      0.55450000	     -0.17303971	     -0.04550824	      3.08376029	     -0.81425228	      0.99249998	      0.31640105	     22.10413707	      2.26541035	     -4.16789644	     -1.68914007	     -0.68882649	    -15.15992603	      0.05229544	    -17.07069339	      2.62626838	      2.14746040	     -5.27453848	      6.36544069	     -5.09962511	      1.49811290	     -4.32257513	      2.37101510	     -1.74687576
      0.55866667	     -0.25083069	     -0.10530610	      3.03024750	     -0.80818438	      0.99203444	      0.31686559	     22.14314783	      2.43596447	     -3.78389743	     -2.00579293	     -1.06846643	    -15.87936850	      0.98133956	    -17.05043660	      2.52932542	      1.98214157	     -5.83088311	      6.23658986	     -4.90218654	      5.57067855	     -4.14748858	      2.44175109	     -1.74174809
      0.56283333	     -0.27724689	     -0.18666423	      2.98977602	     -0.80204330	      0.99166747	      0.31724959	     22.17738289	      2.60350135	     -3.68211038	     -2.45199729	     -1.48281683	    -15.94018605	      1.00156892	    -17.08007784	      2.40866073	      1.83726725	     -6.39998282	      6.15244755	     -4.65400722	      5.61761567	     -4.04507987	      2.56024823	     -1.77809245
      0.56700000	     -0.30990605	     -0.26076272	      2.93789218	     -0.79591507	      0.99131798	      0.31770627	     22.19257522	      2.78181190	     -3.41173295	     -2.88495395	     -1.86594286	    -16.35013135	      1.06442944	    -17.04661958	      2.29144403	      1.61001480	     -7.08156952	      6.10266254	     -4.32930414	      5.75304432	     -3.93141489	      2.64828685	     -1.78973842
      0.57116667	     -0.35397254	     -0.34158418	      2.85499658	     -0.78970757	      0.99099148	      0.31815398	     22.23330427	      2.96941444	     -3.16600238	     -3.36639776	     -2.35904598	    -16.62302317	      1.10644729	    -17.04158824	      2.18553821	      1.48152050	     -7.67952227	      5.88978632	     -4.19412460	      5.85466619	     -3.78744807	      2.76462649	     -1.79645958
      0.57533333	     -0.37131797	     -0.44847692	      2.78226183	     -0.78350339	      0.99074248	      0.31868458	     22.19557091	      3.20587386	     -2.74891406	     -3.78318733	     -2.81412556	    -17.39560012	      1.27429544	    -16.98947476	      2.03255583	      1.23635422	     -8.42167740	      5.73805213	     -3.89832220	      6.25671147	     -3.69747155	      2.88643396	     -1.79260710
      0.57950000	     -0.43920964	     -0.52245224	      2.72805386	     -0.77728918	      0.99046867	      0.31913404	     22.24035318	      3.37937770	     -2.48254203	     -4.26156383	     -3.37360718	    -17.71507307	      1.35915920	    -16.86166122	      1.92101851	      1.10415857	     -9.19746789	      5.53573315	     -3.74921063	      6.49603128	     -3.52954755	      2.96953205	     -1.77720793
      0.58366667	     -0.44932767	     -0.64392207	      2.62137553	     -0.77099874	      0.99030084	      0.31969106	     22.19845811	      3.63965548	     -2.06396912	     -4.72356007	     -3.88532446	    -18.44323839	      1.56725521	    -16.79573315	      1.75989834	      0.85547539	     -9.96724370	      5.24193653	     -3.48756235	      7.11398824	     -3.43126377	      3.12724564	     -1.77461802
      0.58783333	     -0.50192894	     -0.72622618	      2.53171007	     -0.76471463	      0.99011924	      0.32015525	     22.24120748	      3.82523793	     -1.84215503	     -5.26058882	     -4.48784279	    -18.57581676	      1.61117795	    -16.66839777	      1.65197248	      0.74730360	    -10.75958601	      4.89687657	     -3.43313729	      7.27416170	     -3.28815157	      3.23234198	     -1.75953064
      0.59200000	     -0.52510447	     -0.85853550	      2.44414968	     -0.75840736	      0.99001719	      0.32073686	     22.18094253	      4.09768979	     -1.37587763	     -5.68894469	     -4.99432956	    -19.48429425	      1.82746031	    -16.49145097	      1.46004846	      0.44887984	    -11.70715673	      4.56945008	     -3.09626364	      8.09701240	     -3.15921947	      3.39711117	     -1.74202226
      0.59616667	     -0.58343282	     -0.94216292	      2.35507275	     -0.75212271	      0.98991093	      0.32122861	     22.20484430	      4.29040176	     -1.08415070	     -6.20237833	     -5.60112190	    -19.87847124	      2.95488985	    -16.27576240	      1.34056027	      0.31243480	    -12.62795463	      4.05510837	     -3.13366165	     12.87261159	     -3.00778564	      3.49895066	     -1.69259845
      0.60033333	     -0.63411658	     -1.04993047	      2.27908519	     -0.74581021	      0.98985067	      0.32172358	     22.21429959	      4.50063622	     -0.84168619	     -6.71984266	     -6.11230075	    -20.10808640	      2.96974809	    -16.01004952	      1.17814101	      0.11253945	    -13.66502551	      3.63858752	     -2.89092952	     12.93849403	     -2.85170154	      3.63356351	     -1.69340063
      0.60450000	     -0.66616634	     -1.17989969	      2.18295849	     -0.73950910	      0.98983898	      0.32227302	     22.20129323	      4.75124997	     -0.52817593	     -7.24717453	     -6.59035182	    -20.65924069	      2.99208595	    -15.73332125	      0.98920888	     -0.12213903	    -14.75447833	      3.19009517	     -2.65574554	     13.13939223	     -2.73159541	      3.79695742	     -1.67531265
      0.60866667	     -0.71613625	     -1.29365448	      2.10712157	     -0.73319175	      0.98987604	      0.32277592	     22.18631524	      4.96723645	     -0.25531239	     -7.73891405	     -7.05156366	    -20.94403499	      3.00273850	    -15.41044238	      0.81538805	     -0.28480955	    -15.86912039	      2.58399411	     -2.51084857	     13.32660197	     -2.57149609	      3.93676075	     -1.65313662
      0.61283333	     -0.76685372	     -1.42661477	      2.02755081	     -0.72689447	      0.98992659	      0.32331400	     22.18288846	      5.20571479	      0.00283757	     -8.26287314	     -7.44408599	    -21.33409607	      3.01056427	    -15.03528077	      0.60814406	     -0.50020052	    -17.07453976	      1.97992826	     -2.30121707	     13.60601586	     -2.41981615	      4.09798631	     -1.63482356
      0.61700000	     -0.75995441	     -1.57588193	      1.93805805	     -0.72060837	      0.99008654	      0.32386411	     22.11529800	      5.46783245	      0.26054280	     -8.79455810	     -7.78568379	    -21.81954031	      3.04309246	    -14.70480660	      0.38156052	     -0.71272761	    -18.28297838	      1.25086813	     -2.23913822	     18.01696788	     -2.35742544	      4.28598410	     -1.58964107
      0.62116667	     -0.78627141	     -1.71553087	      1.87400223	     -0.71434572	      0.99023312	      0.32435895	     22.09056791	      5.69247542	      0.41306363	     -9.34137464	     -8.06575206	    -21.93223042	      3.03852303	    -14.28134282	      0.15484472	     -0.89137879	    -19.59386193	      0.53892786	     -2.03009499	     18.07430579	     -2.23707877	      4.45686335	     -1.59878692
      0.62533333	     -0.81408145	     -1.86119824	      1.80938561	     -0.70811763	      0.99040329	      0.32488603	     22.06771269	      5.92677845	      0.56767854	     -9.89944661	     -8.27741527	    -22.13406347	      3.02851219	    -13.81313757	     -0.08644800	     -1.07294985	    -20.96195751	     -0.21463637	     -1.85255351	     18.19269939	     -2.12271202	      4.63042573	     -1.58876318
      0.62950000	     -0.83584402	     -2.01228586	      1.75032598	     -0.70192163	      0.99061168	      0.32539432	     22.03374290	      6.16014803	      0.69806734	    -10.45126786	     -8.44134471	    -22.30570757	      3.01365375	    -13.31289427	     -0.33936359	     -1.23983562	    -22.38091747	     -1.04452927	     -1.69643745	     18.36390018	     -2.02029549	      4.81626970	     -1.57661691
      0.63366667	     -0.79340739	     -2.21115572	      1.68158685	     -0.69575123	      0.99092285	      0.32598576	     21.88885067	      6.46816235	      0.92839764	    -10.92282092	     -8.65065136	    -22.85050827	      2.83703046	    -12.85221351	     -0.66232093	     -1.46118740	    -23.83569341	     -1.90157592	     -1.53002027	     20.15424911	     -2.00619571	      5.05671067	     -1.62675214
      0.63783333	     -0.83591551	     -2.35265107	      1.64471945	     -0.68964549	      0.99112944	      0.32644805	     21.89805626	      6.66244396	      0.91377799	    -11.52503291	     -8.62977535	    -22.65996963	      2.82375906	    -12.24776493	     -0.91600556	     -1.56767385	    -25.35923192	     -2.82914117	     -1.40882758	     20.29819885	     -1.88093202	      5.22225798	     -1.54867251
      0.64200000	     -0.82404887	     -2.50354186	      1.60037495	     -0.68359514	      0.99142121	      0.32694777	     21.84225846	      6.87461428	      0.90368238	    -12.11697078	     -8.58659467	    -22.53955792	      2.46351615	    -11.67485779	     -1.19050824	     -1.69646823	    -26.89482357	     -3.86008824	     -1.34753082	     23.24943193	     -1.84254076	      5.39689863	     -1.58368318
      0.64616667	     -0.82831728	     -2.68943742	      1.56435771	     -0.67756570	      0.99170926	      0.32745184	     21.76064153	      7.12563948	      0.93784858	    -12.62119896	     -8.54728530	    -22.54538948	      2.45913917	    -11.04358915	     -1.50968152	     -1.81560068	    -28.49664925	     -4.84068000	     -1.26901139	     23.27410854	     -1.76966473	      5.61779559	     -1.51828362
      0.65033333	     -0.82696252	     -2.87196507	      1.53175927	     -0.67159857	      0.99202134	      0.32795032	     21.67192362	      7.36860268	      0.93941845	    -13.12371804	     -8.46227677	    -22.52121460	      2.45235792	    -10.38757488	     -1.82991079	     -1.91814179	    -30.12003051	     -5.89804317	     -1.20153156	     23.31994312	     -1.71905952	      5.82766439	     -1.49024121
      0.65450000	     -0.77917239	     -3.06659583	      1.49982589	     -0.66569234	      0.99240252	      0.32844326	     21.52286912	      7.62373862	      0.92608804	    -13.60365954	     -8.35792569	    -22.46348876	      2.44985106	     -9.76138973	     -2.16244036	     -1.99252337	    -31.74746006	     -7.01039148	     -1.17194965	     23.35112381	     -1.74191951	      6.07004768	     -1.45314049
      0.65866667	     -0.80882825	     -3.24252297	      1.47631376	     -0.65985700	      0.99266827	      0.32895233	     21.44484496	      7.85387473	      0.90344264	    -14.05773964	     -8.18475903	    -22.37705083	      2.44305703	     -8.99370675	     -2.48987307	     -2.08176811	    -33.45219751	     -8.09448074	     -1.13720241	     23.41008452	     -1.65143359	      6.25190092	     -1.42501592
